<mxfile host="app.diagrams.net" agent="Mozilla/5.0 (Windows NT 10.0; Win64; x64) AppleWebKit/537.36 (KHTML, like Gecko) Chrome/128.0.0.0 Safari/537.36" version="24.7.12">
  <diagram name="Page-1" id="NEqLCACGaBh9zqU9r43j">
    <mxGraphModel dx="958" dy="525" grid="1" gridSize="10" guides="1" tooltips="1" connect="1" arrows="1" fold="1" page="1" pageScale="1" pageWidth="827" pageHeight="1169" math="0" shadow="0">
      <root>
        <mxCell id="0" />
        <mxCell id="1" parent="0" />
        <mxCell id="gVIDgEgjP4VSLAiEk8rj-2" value="&lt;b&gt;&lt;font style=&quot;font-size: 24px;&quot;&gt;Surf&#39;s Up PERT Thingymabob&lt;/font&gt;&lt;/b&gt;" style="text;html=1;align=center;verticalAlign=middle;resizable=0;points=[];autosize=1;strokeColor=none;fillColor=none;" vertex="1" parent="1">
          <mxGeometry x="30" y="23" width="360" height="40" as="geometry" />
        </mxCell>
        <mxCell id="gVIDgEgjP4VSLAiEk8rj-12" value="" style="endArrow=none;html=1;rounded=0;" edge="1" parent="1">
          <mxGeometry width="50" height="50" relative="1" as="geometry">
            <mxPoint x="240" y="160" as="sourcePoint" />
            <mxPoint x="400" y="160" as="targetPoint" />
          </mxGeometry>
        </mxCell>
        <mxCell id="gVIDgEgjP4VSLAiEk8rj-14" value="Positioned" style="text;html=1;align=center;verticalAlign=middle;whiteSpace=wrap;rounded=0;" vertex="1" parent="1">
          <mxGeometry x="90" y="130" width="60" height="30" as="geometry" />
        </mxCell>
        <mxCell id="gVIDgEgjP4VSLAiEk8rj-15" value="Ready" style="text;html=1;align=center;verticalAlign=middle;whiteSpace=wrap;rounded=0;" vertex="1" parent="1">
          <mxGeometry x="290" y="130" width="60" height="30" as="geometry" />
        </mxCell>
        <mxCell id="gVIDgEgjP4VSLAiEk8rj-17" value="Pending" style="text;html=1;align=center;verticalAlign=middle;whiteSpace=wrap;rounded=0;" vertex="1" parent="1">
          <mxGeometry x="530" y="130" width="60" height="30" as="geometry" />
        </mxCell>
        <mxCell id="gVIDgEgjP4VSLAiEk8rj-22" value="Start" style="swimlane;fontStyle=0;childLayout=stackLayout;horizontal=1;startSize=26;fillColor=none;horizontalStack=0;resizeParent=1;resizeParentMax=0;resizeLast=0;collapsible=1;marginBottom=0;whiteSpace=wrap;html=1;" vertex="1" parent="1">
          <mxGeometry x="250" y="170" width="140" height="78" as="geometry" />
        </mxCell>
        <mxCell id="gVIDgEgjP4VSLAiEk8rj-23" value="Predec&lt;span style=&quot;white-space: pre;&quot;&gt;&#x9;&lt;/span&gt;None" style="text;strokeColor=none;fillColor=none;align=left;verticalAlign=top;spacingLeft=4;spacingRight=4;overflow=hidden;rotatable=0;points=[[0,0.5],[1,0.5]];portConstraint=eastwest;whiteSpace=wrap;html=1;" vertex="1" parent="gVIDgEgjP4VSLAiEk8rj-22">
          <mxGeometry y="26" width="140" height="26" as="geometry" />
        </mxCell>
        <mxCell id="gVIDgEgjP4VSLAiEk8rj-24" value="Time&lt;span style=&quot;white-space: pre;&quot;&gt;&#x9;&lt;/span&gt;0" style="text;strokeColor=none;fillColor=none;align=left;verticalAlign=top;spacingLeft=4;spacingRight=4;overflow=hidden;rotatable=0;points=[[0,0.5],[1,0.5]];portConstraint=eastwest;whiteSpace=wrap;html=1;" vertex="1" parent="gVIDgEgjP4VSLAiEk8rj-22">
          <mxGeometry y="52" width="140" height="26" as="geometry" />
        </mxCell>
        <mxCell id="gVIDgEgjP4VSLAiEk8rj-27" value="" style="endArrow=none;html=1;rounded=0;" edge="1" parent="1">
          <mxGeometry width="50" height="50" relative="1" as="geometry">
            <mxPoint x="40" y="160" as="sourcePoint" />
            <mxPoint x="200" y="160" as="targetPoint" />
          </mxGeometry>
        </mxCell>
        <mxCell id="gVIDgEgjP4VSLAiEk8rj-28" value="" style="endArrow=none;html=1;rounded=0;" edge="1" parent="1">
          <mxGeometry width="50" height="50" relative="1" as="geometry">
            <mxPoint x="480" y="160" as="sourcePoint" />
            <mxPoint x="640" y="160" as="targetPoint" />
          </mxGeometry>
        </mxCell>
        <mxCell id="gVIDgEgjP4VSLAiEk8rj-29" value="A" style="swimlane;fontStyle=0;childLayout=stackLayout;horizontal=1;startSize=26;fillColor=none;horizontalStack=0;resizeParent=1;resizeParentMax=0;resizeLast=0;collapsible=1;marginBottom=0;whiteSpace=wrap;html=1;" vertex="1" parent="1">
          <mxGeometry x="490" y="170" width="190" height="130" as="geometry" />
        </mxCell>
        <mxCell id="gVIDgEgjP4VSLAiEk8rj-30" value="Predec&lt;span style=&quot;white-space: pre;&quot;&gt;&#x9;&lt;/span&gt;None" style="text;strokeColor=none;fillColor=none;align=left;verticalAlign=top;spacingLeft=4;spacingRight=4;overflow=hidden;rotatable=0;points=[[0,0.5],[1,0.5]];portConstraint=eastwest;whiteSpace=wrap;html=1;" vertex="1" parent="gVIDgEgjP4VSLAiEk8rj-29">
          <mxGeometry y="26" width="190" height="26" as="geometry" />
        </mxCell>
        <mxCell id="gVIDgEgjP4VSLAiEk8rj-31" value="Time&lt;span style=&quot;white-space: pre;&quot;&gt;&#x9;&lt;/span&gt;3" style="text;strokeColor=none;fillColor=none;align=left;verticalAlign=top;spacingLeft=4;spacingRight=4;overflow=hidden;rotatable=0;points=[[0,0.5],[1,0.5]];portConstraint=eastwest;whiteSpace=wrap;html=1;" vertex="1" parent="gVIDgEgjP4VSLAiEk8rj-29">
          <mxGeometry y="52" width="190" height="26" as="geometry" />
        </mxCell>
        <mxCell id="gVIDgEgjP4VSLAiEk8rj-32" value="Desc&lt;span style=&quot;white-space: pre;&quot;&gt;&#x9;&lt;/span&gt;Objekt Model" style="text;strokeColor=none;fillColor=none;align=left;verticalAlign=top;spacingLeft=4;spacingRight=4;overflow=hidden;rotatable=0;points=[[0,0.5],[1,0.5]];portConstraint=eastwest;whiteSpace=wrap;html=1;" vertex="1" parent="gVIDgEgjP4VSLAiEk8rj-29">
          <mxGeometry y="78" width="190" height="26" as="geometry" />
        </mxCell>
        <mxCell id="gVIDgEgjP4VSLAiEk8rj-33" value="Assignee&lt;span style=&quot;white-space: pre;&quot;&gt;&#x9;&lt;/span&gt;JacoppÃ©" style="text;strokeColor=none;fillColor=none;align=left;verticalAlign=top;spacingLeft=4;spacingRight=4;overflow=hidden;rotatable=0;points=[[0,0.5],[1,0.5]];portConstraint=eastwest;whiteSpace=wrap;html=1;" vertex="1" parent="gVIDgEgjP4VSLAiEk8rj-29">
          <mxGeometry y="104" width="190" height="26" as="geometry" />
        </mxCell>
        <mxCell id="gVIDgEgjP4VSLAiEk8rj-34" value="B" style="swimlane;fontStyle=0;childLayout=stackLayout;horizontal=1;startSize=26;fillColor=none;horizontalStack=0;resizeParent=1;resizeParentMax=0;resizeLast=0;collapsible=1;marginBottom=0;whiteSpace=wrap;html=1;" vertex="1" parent="1">
          <mxGeometry x="690" y="170" width="190" height="130" as="geometry" />
        </mxCell>
        <mxCell id="gVIDgEgjP4VSLAiEk8rj-35" value="Predec&lt;span style=&quot;white-space: pre;&quot;&gt;&#x9;&lt;/span&gt;A" style="text;strokeColor=none;fillColor=none;align=left;verticalAlign=top;spacingLeft=4;spacingRight=4;overflow=hidden;rotatable=0;points=[[0,0.5],[1,0.5]];portConstraint=eastwest;whiteSpace=wrap;html=1;" vertex="1" parent="gVIDgEgjP4VSLAiEk8rj-34">
          <mxGeometry y="26" width="190" height="26" as="geometry" />
        </mxCell>
        <mxCell id="gVIDgEgjP4VSLAiEk8rj-36" value="Time&lt;span style=&quot;white-space: pre;&quot;&gt;&#x9;&lt;/span&gt;4" style="text;strokeColor=none;fillColor=none;align=left;verticalAlign=top;spacingLeft=4;spacingRight=4;overflow=hidden;rotatable=0;points=[[0,0.5],[1,0.5]];portConstraint=eastwest;whiteSpace=wrap;html=1;" vertex="1" parent="gVIDgEgjP4VSLAiEk8rj-34">
          <mxGeometry y="52" width="190" height="26" as="geometry" />
        </mxCell>
        <mxCell id="gVIDgEgjP4VSLAiEk8rj-37" value="Desc&lt;span style=&quot;white-space: pre;&quot;&gt;&#x9;&lt;/span&gt;Booking Virker" style="text;strokeColor=none;fillColor=none;align=left;verticalAlign=top;spacingLeft=4;spacingRight=4;overflow=hidden;rotatable=0;points=[[0,0.5],[1,0.5]];portConstraint=eastwest;whiteSpace=wrap;html=1;" vertex="1" parent="gVIDgEgjP4VSLAiEk8rj-34">
          <mxGeometry y="78" width="190" height="26" as="geometry" />
        </mxCell>
        <mxCell id="gVIDgEgjP4VSLAiEk8rj-38" value="Assignee&lt;span style=&quot;white-space: pre;&quot;&gt;&#x9;&lt;/span&gt;None" style="text;strokeColor=none;fillColor=none;align=left;verticalAlign=top;spacingLeft=4;spacingRight=4;overflow=hidden;rotatable=0;points=[[0,0.5],[1,0.5]];portConstraint=eastwest;whiteSpace=wrap;html=1;" vertex="1" parent="gVIDgEgjP4VSLAiEk8rj-34">
          <mxGeometry y="104" width="190" height="26" as="geometry" />
        </mxCell>
        <mxCell id="gVIDgEgjP4VSLAiEk8rj-39" value="C" style="swimlane;fontStyle=0;childLayout=stackLayout;horizontal=1;startSize=26;fillColor=none;horizontalStack=0;resizeParent=1;resizeParentMax=0;resizeLast=0;collapsible=1;marginBottom=0;whiteSpace=wrap;html=1;" vertex="1" parent="1">
          <mxGeometry x="890" y="170" width="190" height="130" as="geometry" />
        </mxCell>
        <mxCell id="gVIDgEgjP4VSLAiEk8rj-40" value="Predec&lt;span style=&quot;white-space: pre;&quot;&gt;&#x9;&lt;/span&gt;A, B" style="text;strokeColor=none;fillColor=none;align=left;verticalAlign=top;spacingLeft=4;spacingRight=4;overflow=hidden;rotatable=0;points=[[0,0.5],[1,0.5]];portConstraint=eastwest;whiteSpace=wrap;html=1;" vertex="1" parent="gVIDgEgjP4VSLAiEk8rj-39">
          <mxGeometry y="26" width="190" height="26" as="geometry" />
        </mxCell>
        <mxCell id="gVIDgEgjP4VSLAiEk8rj-41" value="Time&lt;span style=&quot;white-space: pre;&quot;&gt;&#x9;&lt;/span&gt;4" style="text;strokeColor=none;fillColor=none;align=left;verticalAlign=top;spacingLeft=4;spacingRight=4;overflow=hidden;rotatable=0;points=[[0,0.5],[1,0.5]];portConstraint=eastwest;whiteSpace=wrap;html=1;" vertex="1" parent="gVIDgEgjP4VSLAiEk8rj-39">
          <mxGeometry y="52" width="190" height="26" as="geometry" />
        </mxCell>
        <mxCell id="gVIDgEgjP4VSLAiEk8rj-42" value="Desc&lt;span style=&quot;white-space: pre;&quot;&gt;&#x9;&lt;/span&gt;Validering" style="text;strokeColor=none;fillColor=none;align=left;verticalAlign=top;spacingLeft=4;spacingRight=4;overflow=hidden;rotatable=0;points=[[0,0.5],[1,0.5]];portConstraint=eastwest;whiteSpace=wrap;html=1;" vertex="1" parent="gVIDgEgjP4VSLAiEk8rj-39">
          <mxGeometry y="78" width="190" height="26" as="geometry" />
        </mxCell>
        <mxCell id="gVIDgEgjP4VSLAiEk8rj-43" value="Assignee&lt;span style=&quot;white-space: pre;&quot;&gt;&#x9;&lt;/span&gt;None" style="text;strokeColor=none;fillColor=none;align=left;verticalAlign=top;spacingLeft=4;spacingRight=4;overflow=hidden;rotatable=0;points=[[0,0.5],[1,0.5]];portConstraint=eastwest;whiteSpace=wrap;html=1;" vertex="1" parent="gVIDgEgjP4VSLAiEk8rj-39">
          <mxGeometry y="104" width="190" height="26" as="geometry" />
        </mxCell>
        <mxCell id="gVIDgEgjP4VSLAiEk8rj-44" value="Total Project Time Estimation : 11 t !!!" style="text;html=1;align=center;verticalAlign=middle;whiteSpace=wrap;rounded=0;" vertex="1" parent="1">
          <mxGeometry x="1080" y="330" width="210" height="20" as="geometry" />
        </mxCell>
        <mxCell id="gVIDgEgjP4VSLAiEk8rj-45" value="&lt;font style=&quot;font-size: 20px;&quot;&gt;Initial Draft&lt;/font&gt;" style="text;html=1;align=left;verticalAlign=middle;whiteSpace=wrap;rounded=0;fontStyle=4" vertex="1" parent="1">
          <mxGeometry x="40" y="80" width="150" height="40" as="geometry" />
        </mxCell>
        <mxCell id="gVIDgEgjP4VSLAiEk8rj-46" value="" style="endArrow=none;html=1;rounded=0;" edge="1" parent="1">
          <mxGeometry width="50" height="50" relative="1" as="geometry">
            <mxPoint x="240" y="440" as="sourcePoint" />
            <mxPoint x="400" y="440" as="targetPoint" />
          </mxGeometry>
        </mxCell>
        <mxCell id="gVIDgEgjP4VSLAiEk8rj-47" value="Positioned" style="text;html=1;align=center;verticalAlign=middle;whiteSpace=wrap;rounded=0;" vertex="1" parent="1">
          <mxGeometry x="90" y="410" width="60" height="30" as="geometry" />
        </mxCell>
        <mxCell id="gVIDgEgjP4VSLAiEk8rj-48" value="Ready" style="text;html=1;align=center;verticalAlign=middle;whiteSpace=wrap;rounded=0;" vertex="1" parent="1">
          <mxGeometry x="290" y="410" width="60" height="30" as="geometry" />
        </mxCell>
        <mxCell id="gVIDgEgjP4VSLAiEk8rj-49" value="Pending" style="text;html=1;align=center;verticalAlign=middle;whiteSpace=wrap;rounded=0;" vertex="1" parent="1">
          <mxGeometry x="530" y="410" width="60" height="30" as="geometry" />
        </mxCell>
        <mxCell id="gVIDgEgjP4VSLAiEk8rj-50" value="Start" style="swimlane;fontStyle=0;childLayout=stackLayout;horizontal=1;startSize=26;fillColor=none;horizontalStack=0;resizeParent=1;resizeParentMax=0;resizeLast=0;collapsible=1;marginBottom=0;whiteSpace=wrap;html=1;" vertex="1" parent="1">
          <mxGeometry x="50" y="450" width="140" height="78" as="geometry" />
        </mxCell>
        <mxCell id="gVIDgEgjP4VSLAiEk8rj-51" value="Predec&lt;span style=&quot;white-space: pre;&quot;&gt;&#x9;&lt;/span&gt;None" style="text;strokeColor=none;fillColor=none;align=left;verticalAlign=top;spacingLeft=4;spacingRight=4;overflow=hidden;rotatable=0;points=[[0,0.5],[1,0.5]];portConstraint=eastwest;whiteSpace=wrap;html=1;" vertex="1" parent="gVIDgEgjP4VSLAiEk8rj-50">
          <mxGeometry y="26" width="140" height="26" as="geometry" />
        </mxCell>
        <mxCell id="gVIDgEgjP4VSLAiEk8rj-52" value="Time&lt;span style=&quot;white-space: pre;&quot;&gt;&#x9;&lt;/span&gt;0" style="text;strokeColor=none;fillColor=none;align=left;verticalAlign=top;spacingLeft=4;spacingRight=4;overflow=hidden;rotatable=0;points=[[0,0.5],[1,0.5]];portConstraint=eastwest;whiteSpace=wrap;html=1;" vertex="1" parent="gVIDgEgjP4VSLAiEk8rj-50">
          <mxGeometry y="52" width="140" height="26" as="geometry" />
        </mxCell>
        <mxCell id="gVIDgEgjP4VSLAiEk8rj-53" value="" style="endArrow=none;html=1;rounded=0;" edge="1" parent="1">
          <mxGeometry width="50" height="50" relative="1" as="geometry">
            <mxPoint x="40" y="440" as="sourcePoint" />
            <mxPoint x="200" y="440" as="targetPoint" />
          </mxGeometry>
        </mxCell>
        <mxCell id="gVIDgEgjP4VSLAiEk8rj-54" value="" style="endArrow=none;html=1;rounded=0;" edge="1" parent="1">
          <mxGeometry width="50" height="50" relative="1" as="geometry">
            <mxPoint x="480" y="440" as="sourcePoint" />
            <mxPoint x="640" y="440" as="targetPoint" />
          </mxGeometry>
        </mxCell>
        <mxCell id="gVIDgEgjP4VSLAiEk8rj-55" value="A" style="swimlane;fontStyle=0;childLayout=stackLayout;horizontal=1;startSize=26;fillColor=none;horizontalStack=0;resizeParent=1;resizeParentMax=0;resizeLast=0;collapsible=1;marginBottom=0;whiteSpace=wrap;html=1;" vertex="1" parent="1">
          <mxGeometry x="230" y="450" width="190" height="130" as="geometry" />
        </mxCell>
        <mxCell id="gVIDgEgjP4VSLAiEk8rj-56" value="Predec&lt;span style=&quot;white-space: pre;&quot;&gt;&#x9;&lt;/span&gt;None" style="text;strokeColor=none;fillColor=none;align=left;verticalAlign=top;spacingLeft=4;spacingRight=4;overflow=hidden;rotatable=0;points=[[0,0.5],[1,0.5]];portConstraint=eastwest;whiteSpace=wrap;html=1;" vertex="1" parent="gVIDgEgjP4VSLAiEk8rj-55">
          <mxGeometry y="26" width="190" height="26" as="geometry" />
        </mxCell>
        <mxCell id="gVIDgEgjP4VSLAiEk8rj-57" value="Time&lt;span style=&quot;white-space: pre;&quot;&gt;&#x9;&lt;/span&gt;3" style="text;strokeColor=none;fillColor=none;align=left;verticalAlign=top;spacingLeft=4;spacingRight=4;overflow=hidden;rotatable=0;points=[[0,0.5],[1,0.5]];portConstraint=eastwest;whiteSpace=wrap;html=1;" vertex="1" parent="gVIDgEgjP4VSLAiEk8rj-55">
          <mxGeometry y="52" width="190" height="26" as="geometry" />
        </mxCell>
        <mxCell id="gVIDgEgjP4VSLAiEk8rj-58" value="Desc&lt;span style=&quot;white-space: pre;&quot;&gt;&#x9;&lt;/span&gt;Objekt Model" style="text;strokeColor=none;fillColor=none;align=left;verticalAlign=top;spacingLeft=4;spacingRight=4;overflow=hidden;rotatable=0;points=[[0,0.5],[1,0.5]];portConstraint=eastwest;whiteSpace=wrap;html=1;" vertex="1" parent="gVIDgEgjP4VSLAiEk8rj-55">
          <mxGeometry y="78" width="190" height="26" as="geometry" />
        </mxCell>
        <mxCell id="gVIDgEgjP4VSLAiEk8rj-59" value="Assignee&lt;span style=&quot;white-space: pre;&quot;&gt;&#x9;&lt;/span&gt;JacoppÃ©" style="text;strokeColor=none;fillColor=none;align=left;verticalAlign=top;spacingLeft=4;spacingRight=4;overflow=hidden;rotatable=0;points=[[0,0.5],[1,0.5]];portConstraint=eastwest;whiteSpace=wrap;html=1;" vertex="1" parent="gVIDgEgjP4VSLAiEk8rj-55">
          <mxGeometry y="104" width="190" height="26" as="geometry" />
        </mxCell>
        <mxCell id="gVIDgEgjP4VSLAiEk8rj-60" value="B" style="swimlane;fontStyle=0;childLayout=stackLayout;horizontal=1;startSize=26;fillColor=none;horizontalStack=0;resizeParent=1;resizeParentMax=0;resizeLast=0;collapsible=1;marginBottom=0;whiteSpace=wrap;html=1;" vertex="1" parent="1">
          <mxGeometry x="480" y="450" width="190" height="130" as="geometry" />
        </mxCell>
        <mxCell id="gVIDgEgjP4VSLAiEk8rj-61" value="Predec&lt;span style=&quot;white-space: pre;&quot;&gt;&#x9;&lt;/span&gt;A" style="text;strokeColor=none;fillColor=none;align=left;verticalAlign=top;spacingLeft=4;spacingRight=4;overflow=hidden;rotatable=0;points=[[0,0.5],[1,0.5]];portConstraint=eastwest;whiteSpace=wrap;html=1;" vertex="1" parent="gVIDgEgjP4VSLAiEk8rj-60">
          <mxGeometry y="26" width="190" height="26" as="geometry" />
        </mxCell>
        <mxCell id="gVIDgEgjP4VSLAiEk8rj-62" value="Time&lt;span style=&quot;white-space: pre;&quot;&gt;&#x9;&lt;/span&gt;4" style="text;strokeColor=none;fillColor=none;align=left;verticalAlign=top;spacingLeft=4;spacingRight=4;overflow=hidden;rotatable=0;points=[[0,0.5],[1,0.5]];portConstraint=eastwest;whiteSpace=wrap;html=1;" vertex="1" parent="gVIDgEgjP4VSLAiEk8rj-60">
          <mxGeometry y="52" width="190" height="26" as="geometry" />
        </mxCell>
        <mxCell id="gVIDgEgjP4VSLAiEk8rj-63" value="Desc&lt;span style=&quot;white-space: pre;&quot;&gt;&#x9;&lt;/span&gt;Booking Virker" style="text;strokeColor=none;fillColor=none;align=left;verticalAlign=top;spacingLeft=4;spacingRight=4;overflow=hidden;rotatable=0;points=[[0,0.5],[1,0.5]];portConstraint=eastwest;whiteSpace=wrap;html=1;" vertex="1" parent="gVIDgEgjP4VSLAiEk8rj-60">
          <mxGeometry y="78" width="190" height="26" as="geometry" />
        </mxCell>
        <mxCell id="gVIDgEgjP4VSLAiEk8rj-64" value="Assignee&lt;span style=&quot;white-space: pre;&quot;&gt;&#x9;&lt;/span&gt;None" style="text;strokeColor=none;fillColor=none;align=left;verticalAlign=top;spacingLeft=4;spacingRight=4;overflow=hidden;rotatable=0;points=[[0,0.5],[1,0.5]];portConstraint=eastwest;whiteSpace=wrap;html=1;" vertex="1" parent="gVIDgEgjP4VSLAiEk8rj-60">
          <mxGeometry y="104" width="190" height="26" as="geometry" />
        </mxCell>
        <mxCell id="gVIDgEgjP4VSLAiEk8rj-65" value="C" style="swimlane;fontStyle=0;childLayout=stackLayout;horizontal=1;startSize=26;fillColor=none;horizontalStack=0;resizeParent=1;resizeParentMax=0;resizeLast=0;collapsible=1;marginBottom=0;whiteSpace=wrap;html=1;" vertex="1" parent="1">
          <mxGeometry x="680" y="450" width="190" height="130" as="geometry" />
        </mxCell>
        <mxCell id="gVIDgEgjP4VSLAiEk8rj-66" value="Predec&lt;span style=&quot;white-space: pre;&quot;&gt;&#x9;&lt;/span&gt;A, B" style="text;strokeColor=none;fillColor=none;align=left;verticalAlign=top;spacingLeft=4;spacingRight=4;overflow=hidden;rotatable=0;points=[[0,0.5],[1,0.5]];portConstraint=eastwest;whiteSpace=wrap;html=1;" vertex="1" parent="gVIDgEgjP4VSLAiEk8rj-65">
          <mxGeometry y="26" width="190" height="26" as="geometry" />
        </mxCell>
        <mxCell id="gVIDgEgjP4VSLAiEk8rj-67" value="Time&lt;span style=&quot;white-space: pre;&quot;&gt;&#x9;&lt;/span&gt;4" style="text;strokeColor=none;fillColor=none;align=left;verticalAlign=top;spacingLeft=4;spacingRight=4;overflow=hidden;rotatable=0;points=[[0,0.5],[1,0.5]];portConstraint=eastwest;whiteSpace=wrap;html=1;" vertex="1" parent="gVIDgEgjP4VSLAiEk8rj-65">
          <mxGeometry y="52" width="190" height="26" as="geometry" />
        </mxCell>
        <mxCell id="gVIDgEgjP4VSLAiEk8rj-68" value="Desc&lt;span style=&quot;white-space: pre;&quot;&gt;&#x9;&lt;/span&gt;Validering" style="text;strokeColor=none;fillColor=none;align=left;verticalAlign=top;spacingLeft=4;spacingRight=4;overflow=hidden;rotatable=0;points=[[0,0.5],[1,0.5]];portConstraint=eastwest;whiteSpace=wrap;html=1;" vertex="1" parent="gVIDgEgjP4VSLAiEk8rj-65">
          <mxGeometry y="78" width="190" height="26" as="geometry" />
        </mxCell>
        <mxCell id="gVIDgEgjP4VSLAiEk8rj-69" value="Assignee&lt;span style=&quot;white-space: pre;&quot;&gt;&#x9;&lt;/span&gt;None" style="text;strokeColor=none;fillColor=none;align=left;verticalAlign=top;spacingLeft=4;spacingRight=4;overflow=hidden;rotatable=0;points=[[0,0.5],[1,0.5]];portConstraint=eastwest;whiteSpace=wrap;html=1;" vertex="1" parent="gVIDgEgjP4VSLAiEk8rj-65">
          <mxGeometry y="104" width="190" height="26" as="geometry" />
        </mxCell>
        <mxCell id="gVIDgEgjP4VSLAiEk8rj-70" value="&lt;font style=&quot;font-size: 20px;&quot;&gt;FÃ¶rste Dag / Fredag 06-09-2024&lt;/font&gt;" style="text;html=1;align=left;verticalAlign=middle;whiteSpace=wrap;rounded=0;fontStyle=4" vertex="1" parent="1">
          <mxGeometry x="40" y="360" width="360" height="40" as="geometry" />
        </mxCell>
      </root>
    </mxGraphModel>
  </diagram>
</mxfile>
